<svg width="56" height="56" viewBox="0 0 56 56" fill="none" xmlns="http://www.w3.org/2000/svg">
<path d="M30.6506 55.8636V51.7096C32.7276 51.4327 34.7469 50.8904 36.7085 50.0827C38.6701 49.275 40.5047 48.2019 42.2125 46.8634L45.051 49.9096C42.9279 51.6635 40.6663 53.0251 38.2662 53.9943C35.8662 54.9636 33.3276 55.5867 30.6506 55.8636ZM49.2742 45.6172L46.2972 42.7787C47.5433 41.1171 48.5818 39.3286 49.4126 37.4132C50.2434 35.4977 50.8203 33.4323 51.1434 31.2169H55.3666C54.9974 33.9862 54.2935 36.5824 53.255 39.0055C52.2165 41.4286 50.8896 43.6325 49.2742 45.6172ZM51.1434 25.4014C50.8203 23.1859 50.2434 21.132 49.4126 19.2397C48.5818 17.3473 47.5433 15.5473 46.2972 13.8396L49.2742 11.001C51.028 13.3088 52.3665 15.5934 53.2896 17.855C54.2127 20.1166 54.9051 22.6321 55.3666 25.4014H51.1434ZM24.7659 55.8636C17.7504 55.079 11.8887 52.0673 7.18088 46.8288C2.47308 41.5902 0.119175 35.417 0.119175 28.3091C0.119175 21.2013 2.47308 15.028 7.18088 9.78946C11.8887 4.55088 17.7504 1.53927 24.7659 0.754639V4.90858C18.9042 5.69321 14.0233 8.3125 10.1233 12.7665C6.22316 17.2204 4.27312 22.4013 4.27312 28.3091C4.27312 34.2169 6.22316 39.3978 10.1233 43.8518C14.0233 48.3057 18.9042 50.925 24.7659 51.7096V55.8636ZM42.2817 9.75484C40.4816 8.50866 38.6008 7.48172 36.6392 6.674C34.6777 5.86629 32.7276 5.27782 30.7891 4.90858V0.754639C33.2815 1.12388 35.7508 1.79312 38.197 2.76238C40.6432 3.73163 42.9279 5.04704 45.051 6.70862L42.2817 9.75484ZM27.7429 42.9171C23.8197 39.594 20.912 36.5131 19.0196 33.6746C17.1273 30.8361 16.1811 28.2168 16.1811 25.8167C16.1811 22.1705 17.3465 19.2743 19.6773 17.1281C22.0081 14.9819 24.6967 13.9088 27.7429 13.9088C30.7891 13.9088 33.4776 14.9819 35.8085 17.1281C38.1393 19.2743 39.3047 22.1705 39.3047 25.8167C39.3047 28.2168 38.3585 30.8361 36.4662 33.6746C34.5738 36.5131 31.6661 39.594 27.7429 42.9171ZM27.7429 28.4476C28.6198 28.4476 29.3583 28.1476 29.9583 27.5476C30.5583 26.9475 30.8583 26.2091 30.8583 25.3321C30.8583 24.5475 30.5583 23.8321 29.9583 23.1859C29.3583 22.5398 28.6198 22.2167 27.7429 22.2167C26.8659 22.2167 26.1275 22.5398 25.5275 23.1859C24.9274 23.8321 24.6274 24.5475 24.6274 25.3321C24.6274 26.2091 24.9274 26.9475 25.5275 27.5476C26.1275 28.1476 26.8659 28.4476 27.7429 28.4476Z" fill="white"/>
</svg>
