<svg width="51" height="51" viewBox="0 0 51 51" fill="none" xmlns="http://www.w3.org/2000/svg">
<path d="M46.8895 50.7797C41.2586 50.7797 35.6623 49.395 30.1007 46.6257C24.539 43.8564 19.5427 40.2564 15.1119 35.8255C10.681 31.3946 7.0809 26.3983 4.3116 20.8367C1.54231 15.275 0.157661 9.67873 0.157661 4.04783C0.157661 3.15769 0.454368 2.41591 1.04778 1.82249C1.6412 1.22908 2.38297 0.932373 3.27312 0.932373H12.9656C13.5939 0.932373 14.1548 1.15161 14.6484 1.59008C15.142 2.02855 15.458 2.61703 15.5965 3.35551L17.4658 12.0788C17.5581 12.725 17.5465 13.3134 17.4311 13.8442C17.3157 14.375 17.0734 14.825 16.7042 15.1942L9.78096 22.1867C12.3656 26.4791 15.2619 30.2177 18.4696 33.4024C21.6774 36.587 25.3121 39.2871 29.3737 41.5025L35.9508 34.7178C36.4123 34.2101 36.9431 33.8524 37.5431 33.6447C38.1432 33.437 38.7432 33.4024 39.3432 33.5408L47.5818 35.3409C48.2886 35.4966 48.8691 35.8471 49.3234 36.3924C49.7778 36.9375 50.005 37.5794 50.005 38.3178V47.6642C50.005 48.5544 49.7083 49.2961 49.1148 49.8896C48.5214 50.483 47.7796 50.7797 46.8895 50.7797ZM7.70399 18.3789L13.3118 12.7019L11.7195 5.08631H4.3116C4.3116 6.88636 4.58853 8.85948 5.14239 11.0057C5.69625 13.1519 6.55012 15.6096 7.70399 18.3789ZM33.2507 43.5103C35.1431 44.3872 37.197 45.1026 39.4124 45.6565C41.6278 46.2103 43.774 46.5334 45.851 46.6257V39.2179L38.7201 37.764L33.2507 43.5103Z" fill="white"/>
</svg>
