<svg width="56" height="57" viewBox="0 0 56 57" fill="none" xmlns="http://www.w3.org/2000/svg">
<path d="M27.9121 56.0182C24.0812 56.0182 20.4812 55.2913 17.1118 53.8374C13.7425 52.3835 10.8117 50.4104 8.31934 47.918C5.82697 45.4257 3.85385 42.4948 2.39997 39.1255C0.946094 35.7562 0.219154 32.1561 0.219154 28.3253C0.219154 24.4944 0.946094 20.8943 2.39997 17.525C3.85385 14.1557 5.82697 11.2249 8.31934 8.73251C10.8117 6.24014 13.7425 4.26702 17.1118 2.81314C20.4812 1.35926 24.0812 0.632324 27.9121 0.632324C31.743 0.632324 35.343 1.35926 38.7123 2.81314C42.0816 4.26702 45.0125 6.24014 47.5049 8.73251C49.9972 11.2249 51.9703 14.1557 53.4242 17.525C54.8781 20.8943 55.605 24.4944 55.605 28.3253V31.9946C55.605 34.5793 54.6935 36.7601 52.8704 38.537C51.0472 40.314 48.8203 41.2025 46.1894 41.2025C44.5279 41.2025 42.9586 40.7986 41.4816 39.9909C40.0047 39.1832 38.8739 38.0409 38.0893 36.5639C36.8892 38.1332 35.3892 39.2986 33.5891 40.0602C31.7891 40.8217 29.8968 41.2025 27.9121 41.2025C24.312 41.2025 21.2543 39.9563 18.7388 37.4639C16.2234 34.9716 14.9656 31.9253 14.9656 28.3253C14.9656 24.7252 16.2234 21.6559 18.7388 19.1174C21.2543 16.5788 24.312 15.3096 27.9121 15.3096C31.5122 15.3096 34.5699 16.5788 37.0854 19.1174C39.6008 21.6559 40.8585 24.7252 40.8585 28.3253V31.9946C40.8585 33.4254 41.3778 34.6254 42.4163 35.5947C43.4548 36.5639 44.7125 37.0485 46.1894 37.0485C47.6202 37.0485 48.8549 36.5639 49.8934 35.5947C50.9319 34.6254 51.4511 33.4254 51.4511 31.9946V28.3253C51.4511 21.7713 49.1664 16.2096 44.5971 11.6403C40.0278 7.07093 34.4661 4.78627 27.9121 4.78627C21.3581 4.78627 15.7964 7.07093 11.2271 11.6403C6.65776 16.2096 4.3731 21.7713 4.3731 28.3253C4.3731 34.8793 6.65776 40.4409 11.2271 45.0103C15.7964 49.5796 21.3581 51.8643 27.9121 51.8643H42.7278V56.0182H27.9121ZM27.9121 37.0485C30.3583 37.0485 32.4353 36.2062 34.143 34.5216C35.8507 32.8369 36.7046 30.7715 36.7046 28.3253C36.7046 25.8329 35.8507 23.7329 34.143 22.0251C32.4353 20.3174 30.3583 19.4635 27.9121 19.4635C25.4659 19.4635 23.3889 20.3174 21.6812 22.0251C19.9735 23.7329 19.1196 25.8329 19.1196 28.3253C19.1196 30.7715 19.9735 32.8369 21.6812 34.5216C23.3889 36.2062 25.4659 37.0485 27.9121 37.0485Z" fill="white"/>
</svg>
