<svg width="50" height="50" viewBox="0 0 50 50" fill="none" xmlns="http://www.w3.org/2000/svg">
<path d="M3.75 50C2.75 50 1.875 49.625 1.125 48.875C0.375 48.125 0 47.25 0 46.25V16.25C0 15.25 0.375 14.375 1.125 13.625C1.875 12.875 2.75 12.5 3.75 12.5H18.5625V3.75C18.5625 2.75 18.9375 1.875 19.6875 1.125C20.4375 0.375 21.3125 0 22.3125 0H27.75C28.75 0 29.625 0.375 30.375 1.125C31.125 1.875 31.5 2.75 31.5 3.75V12.5H46.25C47.25 12.5 48.125 12.875 48.875 13.625C49.625 14.375 50 15.25 50 16.25V46.25C50 47.25 49.625 48.125 48.875 48.875C48.125 49.625 47.25 50 46.25 50H3.75ZM3.75 46.25H46.25V16.25H31.5C31.5 17.4167 31.1146 18.3333 30.3438 19C29.5729 19.6667 28.6042 20 27.4375 20H22.5625C21.4375 20 20.4896 19.6667 19.7188 19C18.9479 18.3333 18.5625 17.4167 18.5625 16.25H3.75V46.25ZM9.5 39.5625H24.4375V38.6875C24.4375 37.9375 24.25 37.2708 23.875 36.6875C23.5 36.1042 23.0208 35.7083 22.4375 35.5C21.1042 35.0417 20.0625 34.7396 19.3125 34.5938C18.5625 34.4479 17.8333 34.375 17.125 34.375C16.3333 34.375 15.4896 34.4688 14.5938 34.6562C13.6979 34.8438 12.6875 35.125 11.5625 35.5C10.9375 35.7083 10.4375 36.1042 10.0625 36.6875C9.6875 37.2708 9.5 37.9375 9.5 38.6875V39.5625ZM30.5 35.375H41.125V32.25H30.5V35.375ZM17.125 32.25C18.0625 32.25 18.8594 31.9219 19.5156 31.2656C20.1719 30.6094 20.5 29.8125 20.5 28.875C20.5 27.9375 20.1719 27.1406 19.5156 26.4844C18.8594 25.8281 18.0625 25.5 17.125 25.5C16.1875 25.5 15.3906 25.8281 14.7344 26.4844C14.0781 27.1406 13.75 27.9375 13.75 28.875C13.75 29.8125 14.0781 30.6094 14.7344 31.2656C15.3906 31.9219 16.1875 32.25 17.125 32.25ZM30.5 28.3125H41.125V25.1875H30.5V28.3125ZM22.3125 16.25H27.75V3.75H22.3125V16.25Z" fill="black"/>
</svg>
