<svg width="58" height="30" viewBox="0 0 58 30" fill="none" xmlns="http://www.w3.org/2000/svg">
<path d="M15.5 19.25C14.3333 19.25 13.3333 18.8333 12.5 18C11.6667 17.1667 11.25 16.1667 11.25 15C11.25 13.8333 11.6667 12.8333 12.5 12C13.3333 11.1667 14.3333 10.75 15.5 10.75C16.6667 10.75 17.6667 11.1667 18.5 12C19.3333 12.8333 19.75 13.8333 19.75 15C19.75 16.1667 19.3333 17.1667 18.5 18C17.6667 18.8333 16.6667 19.25 15.5 19.25ZM15.5 30C11.3333 30 7.79167 28.5417 4.875 25.625C1.95833 22.7083 0.5 19.1667 0.5 15C0.5 10.8333 1.95833 7.29167 4.875 4.375C7.79167 1.45833 11.3333 0 15.5 0C18.5 0 21.125 0.708333 23.375 2.125C25.625 3.54167 27.3958 5.6875 28.6875 8.5625H50.9375L58 15.625L47.5625 25.1875L42.0625 21.1875L36.5625 25.1875L31.875 21.4375H28.6875C27.6458 23.9375 26.0104 25.9896 23.7812 27.5938C21.5521 29.1979 18.7917 30 15.5 30ZM15.5 26.25C17.9167 26.25 20.1458 25.4479 22.1875 23.8438C24.2292 22.2396 25.5417 20.1875 26.125 17.6875H33.25L36.625 20.5L42.125 16.5625L47.25 20.4375L52.5625 15.5L49.375 12.3125H26.125C25.625 9.97917 24.375 7.96875 22.375 6.28125C20.375 4.59375 18.0833 3.75 15.5 3.75C12.375 3.75 9.71875 4.84375 7.53125 7.03125C5.34375 9.21875 4.25 11.875 4.25 15C4.25 18.125 5.34375 20.7812 7.53125 22.9688C9.71875 25.1562 12.375 26.25 15.5 26.25Z" fill="black"/>
</svg>
