<svg width="56" height="40" viewBox="0 0 56 40" fill="none" xmlns="http://www.w3.org/2000/svg">
<path d="M0.5 40V30C0.5 28.7917 0.927083 27.7604 1.78125 26.9062C2.63542 26.0521 3.66667 25.625 4.875 25.625H13.6875C14.3958 25.625 15.0729 25.8021 15.7188 26.1562C16.3646 26.5104 16.9167 27 17.375 27.625C18.5833 29.375 20.125 30.7292 22 31.6875C23.875 32.6458 25.875 33.125 28 33.125C30.125 33.125 32.125 32.6458 34 31.6875C35.875 30.7292 37.4375 29.375 38.6875 27.625C39.1458 27 39.6875 26.5104 40.3125 26.1562C40.9375 25.8021 41.6042 25.625 42.3125 25.625H51.125C52.3333 25.625 53.3646 26.0521 54.2188 26.9062C55.0729 27.7604 55.5 28.7917 55.5 30V40H39.25V32.5625C37.75 33.9375 36.0312 35 34.0938 35.75C32.1562 36.5 30.125 36.875 28 36.875C25.875 36.875 23.8542 36.5 21.9375 35.75C20.0208 35 18.2917 33.9375 16.75 32.5625V40H0.5ZM28 29.375C26.5417 29.375 25.1354 29.0312 23.7812 28.3438C22.4271 27.6562 21.3333 26.7083 20.5 25.5C19.8333 24.5417 19.0312 23.7708 18.0938 23.1875C17.1562 22.6042 16.1458 22.2083 15.0625 22C16.2708 20.75 18.1667 19.7917 20.75 19.125C23.3333 18.4583 25.75 18.125 28 18.125C30.25 18.125 32.6771 18.4583 35.2812 19.125C37.8854 19.7917 39.7917 20.75 41 22C39.9167 22.2083 38.9062 22.6042 37.9688 23.1875C37.0312 23.7708 36.2292 24.5417 35.5625 25.5C34.7292 26.7083 33.6354 27.6562 32.2812 28.3438C30.9271 29.0312 29.5 29.375 28 29.375ZM8 21.25C6.125 21.25 4.51042 20.5729 3.15625 19.2188C1.80208 17.8646 1.125 16.25 1.125 14.375C1.125 12.4583 1.80208 10.8333 3.15625 9.5C4.51042 8.16667 6.125 7.5 8 7.5C9.91667 7.5 11.5417 8.16667 12.875 9.5C14.2083 10.8333 14.875 12.4583 14.875 14.375C14.875 16.25 14.2083 17.8646 12.875 19.2188C11.5417 20.5729 9.91667 21.25 8 21.25ZM48 21.25C46.125 21.25 44.5104 20.5729 43.1562 19.2188C41.8021 17.8646 41.125 16.25 41.125 14.375C41.125 12.4583 41.8021 10.8333 43.1562 9.5C44.5104 8.16667 46.125 7.5 48 7.5C49.9167 7.5 51.5417 8.16667 52.875 9.5C54.2083 10.8333 54.875 12.4583 54.875 14.375C54.875 16.25 54.2083 17.8646 52.875 19.2188C51.5417 20.5729 49.9167 21.25 48 21.25ZM28 13.75C26.125 13.75 24.5104 13.0729 23.1562 11.7188C21.8021 10.3646 21.125 8.75 21.125 6.875C21.125 4.95833 21.8021 3.33333 23.1562 2C24.5104 0.666667 26.125 0 28 0C29.9167 0 31.5417 0.666667 32.875 2C34.2083 3.33333 34.875 4.95833 34.875 6.875C34.875 8.75 34.2083 10.3646 32.875 11.7188C31.5417 13.0729 29.9167 13.75 28 13.75Z" fill="black"/>
</svg>
