<svg width="52" height="50" viewBox="0 0 52 50" fill="none" xmlns="http://www.w3.org/2000/svg">
<path d="M40.005 9.5625C38.7517 9.5625 37.6771 9.11625 36.7812 8.22375C35.8854 7.33121 35.4375 6.25829 35.4375 5.005C35.4375 3.75167 35.8837 2.67708 36.7762 1.78125C37.6688 0.885417 38.7417 0.4375 39.995 0.4375C41.2483 0.4375 42.3229 0.88375 43.2188 1.77625C44.1146 2.66879 44.5625 3.74171 44.5625 4.995C44.5625 6.24833 44.1163 7.32292 43.2238 8.21875C42.3312 9.11458 41.2583 9.5625 40.005 9.5625ZM36.25 50V29C36.25 27.75 35.9375 26.625 35.3125 25.625C34.6875 24.625 33.7708 23.8958 32.5625 23.4375L35.125 15.9375C35.4583 14.8958 36.0729 14.0625 36.9688 13.4375C37.8646 12.8125 38.875 12.5 40 12.5C41.125 12.5 42.1354 12.8125 43.0312 13.4375C43.9271 14.0625 44.5417 14.8958 44.875 15.9375L51.25 34.375H44.375V50H36.25ZM25.9375 23.75C24.8958 23.75 24.0104 23.3854 23.2812 22.6562C22.5521 21.9271 22.1875 21.0417 22.1875 20C22.1875 18.9583 22.5521 18.0729 23.2812 17.3438C24.0104 16.6146 24.8958 16.25 25.9375 16.25C26.9792 16.25 27.8646 16.6146 28.5938 17.3438C29.3229 18.0729 29.6875 18.9583 29.6875 20C29.6875 21.0417 29.3229 21.9271 28.5938 22.6562C27.8646 23.3854 26.9792 23.75 25.9375 23.75ZM8.755 9.5625C7.50167 9.5625 6.42708 9.11625 5.53125 8.22375C4.63542 7.33121 4.1875 6.25829 4.1875 5.005C4.1875 3.75167 4.63375 2.67708 5.52625 1.78125C6.41879 0.885417 7.49171 0.4375 8.745 0.4375C9.99833 0.4375 11.0729 0.88375 11.9688 1.77625C12.8646 2.66879 13.3125 3.74171 13.3125 4.995C13.3125 6.24833 12.8662 7.32292 11.9737 8.21875C11.0812 9.11458 10.0083 9.5625 8.755 9.5625ZM4.375 50V31.875H0V16.25C0 15.2188 0.367188 14.3359 1.10156 13.6016C1.83594 12.8672 2.71875 12.5 3.75 12.5H13.75C14.7812 12.5 15.6641 12.8672 16.3984 13.6016C17.1328 14.3359 17.5 15.2188 17.5 16.25V31.875H13.125V50H4.375ZM22.5 50V39.375H19.375V29C19.375 28.2361 19.6424 27.5868 20.1771 27.0521C20.7118 26.5174 21.3611 26.25 22.125 26.25H29.75C30.5139 26.25 31.1632 26.5174 31.6979 27.0521C32.2326 27.5868 32.5 28.2361 32.5 29V39.375H29.375V50H22.5Z" fill="black"/>
</svg>
