<svg width="56" height="46" viewBox="0 0 56 46" fill="none" xmlns="http://www.w3.org/2000/svg">
<path d="M0.625 45.5V39.75C0.625 38.3333 0.958333 37.1562 1.625 36.2188C2.29167 35.2812 3.22917 34.5208 4.4375 33.9375C6.6875 32.8542 9.09375 31.9583 11.6562 31.25C14.2188 30.5417 17.125 30.1875 20.375 30.1875C23.625 30.1875 26.5312 30.5417 29.0938 31.25C31.6562 31.9583 34.0625 32.8542 36.3125 33.9375C37.5208 34.5208 38.4583 35.2812 39.125 36.2188C39.7917 37.1562 40.125 38.3333 40.125 39.75V45.5H0.625ZM4.375 41.75H36.375V39.75C36.375 39.125 36.1979 38.6146 35.8438 38.2188C35.4896 37.8229 35.0625 37.5208 34.5625 37.3125C32.7708 36.5208 30.7708 35.7604 28.5625 35.0312C26.3542 34.3021 23.625 33.9375 20.375 33.9375C17.125 33.9375 14.3958 34.3021 12.1875 35.0312C9.97917 35.7604 7.97917 36.5208 6.1875 37.3125C5.6875 37.5208 5.26042 37.8229 4.90625 38.2188C4.55208 38.6146 4.375 39.125 4.375 39.75V41.75ZM20.375 26.4375C17.625 26.4375 15.375 25.5417 13.625 23.75C11.875 21.9583 11 19.7292 11 17.0625H10.375C10.0417 17.0625 9.75 16.9375 9.5 16.6875C9.25 16.4375 9.125 16.1458 9.125 15.8125C9.125 15.4792 9.25 15.1875 9.5 14.9375C9.75 14.6875 10.0417 14.5625 10.375 14.5625H11C11 12.8958 11.4167 11.3958 12.25 10.0625C13.0833 8.72917 14.1667 7.64583 15.5 6.8125V9.25C15.5 9.5 15.5938 9.71875 15.7812 9.90625C15.9688 10.0938 16.1875 10.1875 16.4375 10.1875C16.7292 10.1875 16.9583 10.0938 17.125 9.90625C17.2917 9.71875 17.375 9.5 17.375 9.25V6C17.7083 5.91667 18.1667 5.84375 18.75 5.78125C19.3333 5.71875 19.8958 5.6875 20.4375 5.6875C20.9792 5.6875 21.5417 5.71875 22.125 5.78125C22.7083 5.84375 23.1667 5.91667 23.5 6V9.25C23.5 9.5 23.5833 9.71875 23.75 9.90625C23.9167 10.0938 24.1458 10.1875 24.4375 10.1875C24.6875 10.1875 24.9062 10.0938 25.0938 9.90625C25.2812 9.71875 25.375 9.5 25.375 9.25V6.8125C26.7083 7.64583 27.7708 8.72917 28.5625 10.0625C29.3542 11.3958 29.75 12.8958 29.75 14.5625H30.375C30.7083 14.5625 31 14.6875 31.25 14.9375C31.5 15.1875 31.625 15.4792 31.625 15.8125C31.625 16.1458 31.5 16.4375 31.25 16.6875C31 16.9375 30.7083 17.0625 30.375 17.0625H29.75C29.75 19.7292 28.875 21.9583 27.125 23.75C25.375 25.5417 23.125 26.4375 20.375 26.4375ZM20.375 22.6875C22.125 22.6875 23.5 22.1667 24.5 21.125C25.5 20.0833 26 18.7292 26 17.0625H14.75C14.75 18.7292 15.25 20.0833 16.25 21.125C17.25 22.1667 18.625 22.6875 20.375 22.6875ZM39.25 30.4375L39.125 28.625C38.8333 28.4583 38.5312 28.2708 38.2188 28.0625C37.9062 27.8542 37.625 27.6458 37.375 27.4375L35.75 28.3125L34.375 26.3125L36 25.125C35.9167 24.9583 35.875 24.8021 35.875 24.6562V23.7188C35.875 23.5729 35.9167 23.4167 36 23.25L34.375 22.0625L35.75 20.0625L37.375 20.9375L38.25 20.3125C38.5417 20.1042 38.8333 19.9167 39.125 19.75L39.25 17.9375H41.75L41.875 19.75C42.1667 19.9167 42.4583 20.1042 42.75 20.3125L43.625 20.9375L45.25 20.0625L46.625 22.0625L45 23.25C45.0833 23.4167 45.125 23.5729 45.125 23.7188V24.6562C45.125 24.8021 45.0833 24.9583 45 25.125L46.625 26.3125L45.25 28.3125L43.625 27.4375C43.375 27.6458 43.0938 27.8542 42.7812 28.0625C42.4688 28.2708 42.1667 28.4583 41.875 28.625L41.75 30.4375H39.25ZM40.5 26.5625C41.1667 26.5625 41.7292 26.3333 42.1875 25.875C42.6458 25.4167 42.875 24.8542 42.875 24.1875C42.875 23.5208 42.6458 22.9583 42.1875 22.5C41.7292 22.0417 41.1667 21.8125 40.5 21.8125C39.8333 21.8125 39.2708 22.0417 38.8125 22.5C38.3542 22.9583 38.125 23.5208 38.125 24.1875C38.125 24.8542 38.3542 25.4167 38.8125 25.875C39.2708 26.3333 39.8333 26.5625 40.5 26.5625ZM46 16.875L45.4375 14.6875C45.0208 14.5208 44.5938 14.2917 44.1562 14C43.7188 13.7083 43.3542 13.3958 43.0625 13.0625L40.3125 14.0625L39.0625 11.875L41.25 10.125C41.1667 9.91667 41.0938 9.6875 41.0312 9.4375C40.9688 9.1875 40.9375 8.9375 40.9375 8.6875C40.9375 8.4375 40.9688 8.1875 41.0312 7.9375C41.0938 7.6875 41.1667 7.45833 41.25 7.25L39.0625 5.5L40.3125 3.3125L43.0625 4.3125C43.3542 3.97917 43.7188 3.65625 44.1562 3.34375C44.5938 3.03125 45.0208 2.8125 45.4375 2.6875L46 0.5H48.375L48.9375 2.6875C49.3542 2.8125 49.7812 3.03125 50.2188 3.34375C50.6562 3.65625 51.0208 3.97917 51.3125 4.3125L54.0625 3.3125L55.3125 5.5L53.125 7.25C53.2083 7.45833 53.2812 7.6875 53.3438 7.9375C53.4062 8.1875 53.4375 8.4375 53.4375 8.6875C53.4375 8.9375 53.4062 9.1875 53.3438 9.4375C53.2812 9.6875 53.2083 9.91667 53.125 10.125L55.3125 11.875L54.0625 14.0625L51.3125 13.0625C51.0208 13.3958 50.6562 13.7083 50.2188 14C49.7812 14.2917 49.3542 14.5208 48.9375 14.6875L48.375 16.875H46ZM47.1875 12.3125C48.2292 12.3125 49.0938 11.9688 49.7812 11.2812C50.4688 10.5938 50.8125 9.72917 50.8125 8.6875C50.8125 7.64583 50.4688 6.78125 49.7812 6.09375C49.0938 5.40625 48.2292 5.0625 47.1875 5.0625C46.1458 5.0625 45.2812 5.40625 44.5938 6.09375C43.9062 6.78125 43.5625 7.64583 43.5625 8.6875C43.5625 9.72917 43.9062 10.5938 44.5938 11.2812C45.2812 11.9688 46.1458 12.3125 47.1875 12.3125Z" fill="black"/>
</svg>
